<?xml version="1.0" encoding="UTF-8"?>
<svg width="1200" height="400" viewBox="0 0 1200 400" fill="none" xmlns="http://www.w3.org/2000/svg">
  <defs>
    <linearGradient id="bg" x1="0" y1="0" x2="1" y2="1">
      <stop offset="0%" stop-color="#0b1220"/>
      <stop offset="100%" stop-color="#0e1b2e"/>
    </linearGradient>
    <linearGradient id="accent" x1="0" y1="0" x2="1" y2="1">
      <stop offset="0%" stop-color="#a78bfa"/>
      <stop offset="100%" stop-color="#6366f1"/>
    </linearGradient>
    <linearGradient id="teal" x1="0" y1="0" x2="1" y2="1">
      <stop offset="0%" stop-color="#22d3ee"/>
      <stop offset="100%" stop-color="#0ea5e9"/>
    </linearGradient>
    <linearGradient id="green" x1="0" y1="0" x2="0" y2="1">
      <stop offset="0%" stop-color="#22c55e"/>
      <stop offset="100%" stop-color="#16a34a"/>
    </linearGradient>
  </defs>

  <rect x="0" y="0" width="1200" height="400" fill="url(#bg)"/>

  <!-- Title -->
  <g transform="translate(60, 70)">
    <text x="0" y="0" fill="#e5e7eb" font-size="24" font-family="Inter, Arial" font-weight="600">Market Parser</text>
    <text x="0" y="22" fill="#93c5fd" font-size="13" font-family="Inter, Arial">Turn trading jargon into structured, searchable fields</text>
  </g>

  <!-- Left: streaming text -->
  <g transform="translate(100, 120)">
    <rect x="0" y="0" width="420" height="180" rx="14" fill="#0b1323" stroke="#1f2937" stroke-opacity="0.6"/>
    <g transform="translate(16, 24)" stroke="#9ca3af" stroke-linecap="round" stroke-width="4">
      <line x1="0" y1="0" x2="360" y2="0"/>
      <line x1="0" y1="24" x2="300" y2="24"/>
      <line x1="0" y1="48" x2="340" y2="48"/>
      <line x1="0" y1="72" x2="380" y2="72"/>
    </g>
    <!-- Highlight sliding token -->
    <rect x="0" y="14" width="80" height="16" rx="4" fill="#22d3ee">
      <animate attributeName="x" values="0; 280; 0" dur="6s" repeatCount="indefinite"/>
    </rect>
  </g>

  <!-- Center: regex + LLM funnel -->
  <g transform="translate(620, 140)">
    <path d="M0,0 L180,0 L140,120 L40,120 Z" fill="#111827" stroke="#1f2937" stroke-opacity="0.6"/>
    <text x="90" y="-10" text-anchor="middle" fill="#93c5fd" font-family="Inter, Arial" font-size="12">Regex + LLM</text>
    <circle cx="40" cy="-20" r="6" fill="#a78bfa">
      <animate attributeName="cy" values="-20;0;-20" dur="3s" repeatCount="indefinite"/>
    </circle>
    <circle cx="90" cy="-30" r="6" fill="#22d3ee">
      <animate attributeName="cy" values="-30;0;-30" dur="3.4s" repeatCount="indefinite"/>
    </circle>
    <circle cx="140" cy="-18" r="6" fill="#10b981">
      <animate attributeName="cy" values="-18;0;-18" dur="3.8s" repeatCount="indefinite"/>
    </circle>
  </g>

  <!-- Right: classification bins -->
  <g transform="translate(900, 110)">
    <rect x="0" y="0" width="220" height="200" rx="14" fill="#0b1323" stroke="#1f2937" stroke-opacity="0.6"/>
    <g transform="translate(16, 24)">
      <rect x="0" y="0" width="0" height="16" rx="4" fill="#22d3ee">
        <animate attributeName="width" values="0;180;120;160" dur="4.2s" repeatCount="indefinite"/>
      </rect>
      <rect x="0" y="32" width="0" height="16" rx="4" fill="#a78bfa">
        <animate attributeName="width" values="0;140;100;150" dur="4.6s" repeatCount="indefinite"/>
      </rect>
      <rect x="0" y="64" width="0" height="16" rx="4" fill="#10b981">
        <animate attributeName="width" values="0;160;110;130" dur="5s" repeatCount="indefinite"/>
      </rect>
    </g>
  </g>

  <g font-family="Inter, Arial" font-size="12" fill="#93c5fd" opacity="0.9">
    <text x="110" y="320">Raw Market Text</text>
    <text x="640" y="280">Parsing Funnel</text>
    <text x="910" y="330">Classification</text>
  </g>
</svg>

