<?xml version="1.0" encoding="UTF-8"?>
<svg width="100%" height="100%" viewBox="0 0 1200 400" fill="none" xmlns="http://www.w3.org/2000/svg" preserveAspectRatio="xMidYMid slice">
  <defs>
    <linearGradient id="bg" x1="0" y1="0" x2="1" y2="1">
      <stop offset="0%" stop-color="var(--bg-0, #0b0f14)"/>
      <stop offset="100%" stop-color="var(--bg-1, #0f172a)"/>
    </linearGradient>
    <linearGradient id="accent" x1="0" y1="0" x2="1" y2="1">
      <stop offset="0%" stop-color="var(--svg-2, var(--accent, #a855f7))"/>
      <stop offset="100%" stop-color="var(--svg-2, var(--accent-strong, #7c3aed))"/>
    </linearGradient>
    <linearGradient id="teal" x1="0" y1="0" x2="1" y2="1">
      <stop offset="0%" stop-color="var(--svg-1, var(--primary, #00e5ff))"/>
      <stop offset="100%" stop-color="var(--svg-1, var(--primary-strong, #38bdf8))"/>
    </linearGradient>
    <linearGradient id="green" x1="0" y1="0" x2="0" y2="1">
      <stop offset="0%" stop-color="var(--svg-3, var(--success, #22c55e))"/>
      <stop offset="100%" stop-color="var(--svg-3, var(--success-strong, #16a34a))"/>
    </linearGradient>
  </defs>

  <rect x="0" y="0" width="1200" height="400" fill="url(#bg)"/>

  <!-- Title -->
  <g transform="translate(60, 70)">
    <text x="0" y="0" fill="#e5e7eb" font-size="24" font-family="Inter, Arial" font-weight="600">Market Parser</text>
    <text x="0" y="22" fill="var(--text-1, #9ca3af)" font-size="13" font-family="Inter, Arial">Turn trading jargon into structured, searchable fields</text>
  </g>

  <!-- Left: streaming text -->
  <g transform="translate(100, 120)">
    <rect x="0" y="0" width="420" height="180" rx="14" fill="var(--bg-2, #111827)" stroke="var(--border-subtle, #1f2937)" stroke-opacity="0.6"/>
    <g transform="translate(16, 24)" stroke="#9ca3af" stroke-linecap="round" stroke-width="4">
      <line x1="0" y1="0" x2="360" y2="0"/>
      <line x1="0" y1="24" x2="300" y2="24"/>
      <line x1="0" y1="48" x2="340" y2="48"/>
      <line x1="0" y1="72" x2="380" y2="72"/>
    </g>
    <!-- Highlight sliding token -->
    <rect x="0" y="14" width="80" height="16" rx="4" fill="url(#teal)">
      <animate attributeName="x" values="0; 280; 0" dur="6s" repeatCount="indefinite"/>
    </rect>
  </g>

  <!-- Center: regex + LLM funnel -->
  <g transform="translate(620, 140)">
    <path d="M0,0 L180,0 L140,120 L40,120 Z" fill="var(--bg-2, #111827)" stroke="var(--border-subtle, #1f2937)" stroke-opacity="0.6"/>
    <text x="90" y="-10" text-anchor="middle" fill="var(--text-1, #9ca3af)" font-family="Inter, Arial" font-size="12">Regex + LLM</text>
    <circle cx="40" cy="-20" r="6" fill="var(--accent, #a855f7)">
      <animate attributeName="cy" values="-20;0;-20" dur="3s" repeatCount="indefinite"/>
    </circle>
    <circle cx="90" cy="-30" r="6" fill="var(--primary, #00e5ff)">
      <animate attributeName="cy" values="-30;0;-30" dur="3.4s" repeatCount="indefinite"/>
    </circle>
    <circle cx="140" cy="-18" r="6" fill="var(--success, #22c55e)">
      <animate attributeName="cy" values="-18;0;-18" dur="3.8s" repeatCount="indefinite"/>
    </circle>
  </g>

  <!-- Right: classification bins -->
  <g transform="translate(900, 110)">
    <rect x="0" y="0" width="220" height="200" rx="14" fill="var(--bg-2, #111827)" stroke="var(--border-subtle, #1f2937)" stroke-opacity="0.6"/>
    <g transform="translate(16, 24)">
      <rect x="0" y="0" width="0" height="16" rx="4" fill="#22d3ee">
        <animate attributeName="width" values="0;180;120;160" dur="4.2s" repeatCount="indefinite"/>
      </rect>
      <rect x="0" y="32" width="0" height="16" rx="4" fill="#a78bfa">
        <animate attributeName="width" values="0;140;100;150" dur="4.6s" repeatCount="indefinite"/>
      </rect>
      <rect x="0" y="64" width="0" height="16" rx="4" fill="#10b981">
        <animate attributeName="width" values="0;160;110;130" dur="5s" repeatCount="indefinite"/>
      </rect>
    </g>
  </g>

  <g font-family="Inter, Arial" font-size="12" fill="var(--text-1, #9ca3af)" opacity="0.9">
    <text x="110" y="320">Raw Market Text</text>
    <text x="640" y="280">Parsing Funnel</text>
    <text x="910" y="330">Classification</text>
  </g>
</svg>
